<!-- Generated by IcoMoon.io -->
<svg version="1.1" xmlns="http://www.w3.org/2000/svg" width="28" height="28" viewBox="0 0 28 28">
<title>quora</title>
<path d="M19.609 12.297c0-6.516-2.031-9.859-6.797-9.859-4.688 0-6.719 3.344-6.719 9.859 0 6.484 2.031 9.797 6.719 9.797 0.75 0 1.422-0.078 2.047-0.266v0c-0.969-1.906-2.109-3.828-4.328-3.828-0.422 0-0.844 0.063-1.234 0.25l-0.766-1.516c0.922-0.797 2.406-1.422 4.312-1.422 2.984 0 4.5 1.437 5.719 3.266 0.703-1.563 1.047-3.672 1.047-6.281zM25.703 22.172h1.828c0.109 1.125-0.453 5.828-5.563 5.828-3.094 0-4.719-1.797-5.953-3.891v0c-1.016 0.281-2.109 0.422-3.203 0.422-6.25 0-12.359-4.984-12.359-12.234 0-7.313 6.125-12.297 12.359-12.297 6.359 0 12.406 4.953 12.406 12.297 0 4.094-1.906 7.422-4.672 9.562 0.891 1.344 1.813 2.234 3.094 2.234 1.406 0 1.969-1.078 2.063-1.922z"></path>
</svg>
